<?xml version="1.0" encoding="UTF-8" standalone="no"?>
<!-- Created with Inkscape (http://www.inkscape.org/) -->

<svg
   width="1189.0464mm"
   height="267.5mm"
   viewBox="0 0 1189.0464 267.5"
   version="1.1"
   id="svg564"
   inkscape:version="1.2.2 (732a01da63, 2022-12-09)"
   sodipodi:docname="logo.svg"
   xmlns:inkscape="http://www.inkscape.org/namespaces/inkscape"
   xmlns:sodipodi="http://sodipodi.sourceforge.net/DTD/sodipodi-0.dtd"
   xmlns="http://www.w3.org/2000/svg"
   xmlns:svg="http://www.w3.org/2000/svg">
  <sodipodi:namedview
     id="namedview566"
     pagecolor="#ffffff"
     bordercolor="#000000"
     borderopacity="0.25"
     inkscape:showpageshadow="2"
     inkscape:pageopacity="0.0"
     inkscape:pagecheckerboard="0"
     inkscape:deskcolor="#d1d1d1"
     inkscape:document-units="mm"
     showgrid="false"
     showguides="false"
     inkscape:zoom="0.14514587"
     inkscape:cx="2225.3475"
     inkscape:cy="599.39701"
     inkscape:window-width="1366"
     inkscape:window-height="697"
     inkscape:window-x="-8"
     inkscape:window-y="-8"
     inkscape:window-maximized="1"
     inkscape:current-layer="layer1" />
  <defs
     id="defs561" />
  <g
     inkscape:label="Capa 1"
     inkscape:groupmode="layer"
     id="layer1"
     transform="translate(0.15377434,-60.206678)">
    <g
       id="g337"
       transform="matrix(2.4953792,0,0,2.4971404,-30.21949,-187.94124)">
      <g
         id="g547"
         transform="matrix(0.8708861,0,0,0.86487997,11.67725,1.0999753)">
        <path
           style="opacity:1;fill:#c0eb14;fill-opacity:1;stroke-width:0.393086"
           d="m 160.07249,181.5038 -51.64507,-0.0308 0.0496,48.72184 c 0,0 47.5334,-1.36658 51.5955,-48.69007 z"
           id="path17414"
           sodipodi:nodetypes="ccccc" />
        <path
           id="path22616-3-6"
           style="fill:#ffffff;fill-opacity:1;stroke-width:0.364459"
           d="m 108.18284,130.30764 c -30.216931,0 -54.712599,23.99229 -54.712599,53.5883 -2e-6,29.59604 24.495668,53.58833 54.712599,53.58833 30.21694,0 54.71261,-23.99229 54.71261,-53.58833 0,-29.59601 -24.49567,-53.58833 -54.71261,-53.5883 z m 46.91042,53.88469 c -3.36445,61.92358 -92.235518,58.8784 -94.221798,-0.23445 6.088938,-60.57174 90.274388,-60.17033 94.221798,0.23445 z"
           sodipodi:nodetypes="sssssccc" />
        <path
           style="fill:#438fdd;fill-opacity:1;stroke-width:0.393086"
           d="m 57.683049,181.50362 50.749911,-0.002 0.0444,48.69355 c 0,0 -46.733255,-1.36692 -50.795355,-48.69041 z"
           id="path17414-3"
           sodipodi:nodetypes="ccccc" />
        <path
           style="fill:#e558da;fill-opacity:1;stroke-width:0.393086"
           d="m 57.681824,181.50311 50.800556,0.003 10e-4,-48.14577 c 0,0 -46.74049,0.82019 -50.80259,48.14368 z"
           id="path17414-3-6"
           sodipodi:nodetypes="ccccc" />
        <path
           style="fill:#2bd42a;fill-opacity:1;stroke-width:0.393086"
           d="m 160.07046,181.50448 -51.59016,0.002 0.006,-48.15134 c 0,0 47.52173,0.82681 51.58383,48.1503 z"
           id="path17414-3-6-5"
           sodipodi:nodetypes="ccccc" />
        <path
           id="path22616-3"
           style="fill:#000000;fill-opacity:1;stroke-width:0.358047"
           d="m 107.70719,130.34686 c -29.792305,0 -53.943755,23.48541 -53.943755,52.45612 -2e-6,28.97074 24.15145,52.45614 53.943755,52.45614 29.79234,0 53.94379,-23.4854 53.94379,-52.45614 0,-28.97071 -24.15145,-52.45613 -53.94379,-52.45612 z m 46.25124,52.74624 c -3.31718,60.61529 -90.939404,57.63445 -92.897778,-0.22949 6.003378,-59.29202 89.005838,-58.89908 92.897778,0.22949 z"
           sodipodi:nodetypes="sssssccc" />
        <ellipse
           style="opacity:1;fill:#000000;fill-opacity:1;stroke-width:0.268942"
           id="path23139"
           cx="106.82763"
           cy="182.22438"
           rx="23.386084"
           ry="21.702284" />
        <path
           style="opacity:1;fill:#ffffff;fill-opacity:1;stroke-width:0.742031"
           d="m 101.72697,179.2759 c 0,0 -20.924274,-8.84713 -20.364822,-17.78699 8.98398,2.13064 20.364822,17.78699 20.364822,17.78699 z"
           id="path26057"
           sodipodi:nodetypes="scs" />
        <path
           style="opacity:1;fill:#ffffff;fill-opacity:1;stroke-width:0.742031"
           d="m 101.21863,179.67419 c 0,0 -7.134373,-1.20737 -12.200446,-2.98079 -0.869024,-0.30418 -3.318614,1.02192 -4.312216,1.88923 -0.46532,1.42506 16.512662,1.09156 16.512662,1.09156 z"
           id="path26065"
           sodipodi:nodetypes="cscc" />
        <path
           style="fill:#ffffff;fill-opacity:1;stroke-width:0.742031"
           d="m 101.63427,179.59822 c 0,0 -7.511692,-3.51126 -12.818747,-6.61197 -0.756329,-0.44189 -5.534145,-0.75582 -6.527748,0.11142 3.141355,3.01369 19.346495,6.50048 19.346495,6.50048 z"
           id="path26065-4"
           sodipodi:nodetypes="csccc" />
        <path
           style="opacity:1;fill:#ffffff;fill-opacity:1;stroke-width:0.742031"
           d="m 87.810529,179.81201 c 2.012968,0.0991 13.221661,0.11959 13.192461,0.18685 -2.566721,5.92044 -18.008926,7.20953 -18.008926,7.20953 0,0 2.803506,-7.49557 4.816465,-7.39638 z"
           id="path26069"
           sodipodi:nodetypes="zscz" />
        <path
           style="opacity:1;fill:#ffffff;fill-opacity:1;stroke-width:0.742031"
           d="m 97.494154,173.24289 c 0,0 4.469216,5.93682 4.547536,5.63661 0.70287,-2.69485 5.61064,-6.09809 5.61064,-6.09809 0,0 0.0599,-0.0558 -0.0727,-0.16045 -5.24458,-4.13699 -10.085286,0.62196 -10.085286,0.62196 z"
           id="path26071"
           sodipodi:nodetypes="cscscc" />
        <path
           style="opacity:1;fill:#ffffff;fill-opacity:1;stroke-width:0.742031"
           d="m 93.654627,185.35305 c 12.633403,-1.38723 9.793053,-7.27621 14.647293,-10.64179 0.63309,-0.43894 -2.15542,-0.22257 -2.15542,-0.22257 0,0 -2.44855,1.87234 -4.18363,5.32436 -2.167507,4.3123 -8.308243,5.54 -8.308243,5.54"
           id="path26114"
           sodipodi:nodetypes="cscsc" />
        <path
           style="opacity:1;fill:#ffffff;fill-opacity:1;stroke-width:0.742031"
           d="m 82.943486,187.64268 c 0,0 2.553457,-0.27153 6.756255,-1.10767 0.704391,-0.14007 -4.118118,4.81857 -7.62535,5.33916 0.169779,-0.0659 0.869095,-4.23149 0.869095,-4.23149 z"
           id="path26118"
           sodipodi:nodetypes="cscc" />
        <path
           style="opacity:1;fill:#ffffff;fill-opacity:1;stroke-width:0.742031"
           d="m 82.078314,192.0753 c -0.07099,-0.12517 3.523734,-0.11933 8.107551,-5.47626 0.08676,-0.10142 0.411021,6.63467 -9.787323,9.546 -0.14281,0.0407 1.92088,-3.6447 1.679772,-4.06974 z"
           id="path26120"
           sodipodi:nodetypes="ssss" />
        <path
           style="opacity:1;fill:#ffffff;fill-opacity:1;stroke-width:0.742031"
           d="m 106.54923,174.11456 c 2.657,-2.31798 11.63207,-4.2843 11.63207,-4.2843 0,0 -8.80654,3.68697 -9.42652,4.37361 -0.59908,-0.0843 -1.83185,0.0621 -2.20555,-0.0892 z"
           id="path26122"
           sodipodi:nodetypes="cccc" />
        <ellipse
           style="opacity:1;fill:#ffffff;fill-opacity:1;stroke-width:0.393086"
           id="path26176"
           cx="127.78157"
           cy="165.1993"
           rx="8.7931681"
           ry="8.4189901" />
      </g>
      <path
         style="fill:#ffffff;fill-opacity:1;stroke-width:0.372716"
         d="m 196.35232,154.75545 c 0,0 -73.2831,-127.110706 -184.149991,3.80596 -2.183927,2.57888 19.616773,20.78349 19.616773,20.78349 l -12.20844,-17.69116 2.116667,-4.04383 c 0,0 71.966666,-112.27562 174.624991,-2.85446 z"
         id="path2840-6-6"
         sodipodi:nodetypes="cscccc" />
      <path
         style="fill:#000000;fill-opacity:1;stroke-width:0.372716"
         d="m 196.6169,156.07837 c 0,0 -73.2831,-127.110707 -184.149991,3.80596 -2.183927,2.57888 19.616773,20.78349 19.616773,20.78349 l -12.20844,-17.69116 2.116667,-4.04383 c 0,0 71.966666,-112.275621 174.624991,-2.85446 z"
         id="path2840-6"
         sodipodi:nodetypes="cscccc" />
    </g>
    <text
       xml:space="preserve"
       style="font-style:normal;font-variant:normal;font-weight:normal;font-stretch:normal;font-size:58.9472px;line-height:475.248px;font-family:'Arial Rounded MT Bold';-inkscape-font-specification:'Arial Rounded MT Bold, ';letter-spacing:0.572007px;word-spacing:0.0045838px;baseline-shift:baseline;white-space:pre;inline-size:0;fill:#ffffff;fill-opacity:1;stroke-width:4.45068"
       x="110.56358"
       y="212.56097"
       id="text393"
       transform="matrix(2.1119567,0,0,3.343156,604.7344,-438.96186)"><tspan
         id="tspan391"
         style="font-style:normal;font-variant:normal;font-weight:normal;font-stretch:normal;font-size:58.9472px;font-family:'Arial Rounded MT Bold';-inkscape-font-specification:'Arial Rounded MT Bold, ';text-align:center;writing-mode:lr-tb;direction:ltr;baseline-shift:baseline;text-anchor:middle;fill:#ffffff;fill-opacity:1;stroke-width:4.45069"
         x="110.56358"
         y="212.56097"
         dx="1.3">ColibriView</tspan></text>
    <text
       xml:space="preserve"
       style="font-style:normal;font-variant:normal;font-weight:normal;font-stretch:normal;font-size:58.9472px;line-height:475.248px;font-family:'Arial Rounded MT Bold';-inkscape-font-specification:'Arial Rounded MT Bold, ';letter-spacing:0.572007px;word-spacing:0.0045838px;baseline-shift:baseline;white-space:pre;inline-size:0;fill:#438fdd;fill-opacity:1;stroke-width:4.45068"
       x="110.56358"
       y="212.56097"
       id="text393-0"
       transform="matrix(2.1119567,0,0,3.343156,601.81708,-440.24421)"><tspan
         id="tspan391-9"
         style="font-style:normal;font-variant:normal;font-weight:normal;font-stretch:normal;font-size:58.9472px;font-family:'Arial Rounded MT Bold';-inkscape-font-specification:'Arial Rounded MT Bold, ';text-align:center;writing-mode:lr-tb;direction:ltr;baseline-shift:baseline;text-anchor:middle;fill:#438fdd;fill-opacity:1;stroke-width:4.45069"
         x="110.56358"
         y="212.56097"
         dx="1.3">C<tspan
   style="font-size:58.9472px;fill:#000000;fill-opacity:1"
   id="tspan2804-7">olibri</tspan><tspan
   style="font-size:58.9472px;fill:#df21d1;fill-opacity:1"
   id="tspan3678-7">V</tspan><tspan
   style="font-size:58.9472px;fill:#000000;fill-opacity:1"
   id="tspan3676-4">iew</tspan></tspan></text>
  </g>
</svg>
